<?xml version="1.0" encoding="utf-8"?>
<!-- Generator: Adobe Illustrator 17.0.1, SVG Export Plug-In . SVG Version: 6.00 Build 0)  -->
<!DOCTYPE svg PUBLIC "-//W3C//DTD SVG 1.1//EN" "http://www.w3.org/Graphics/SVG/1.1/DTD/svg11.dtd" [
	<!ENTITY ns_flows "http://ns.adobe.com/Flows/1.0/">
	<!ENTITY ns_extend "http://ns.adobe.com/Extensibility/1.0/">
	<!ENTITY ns_ai "http://ns.adobe.com/AdobeIllustrator/10.0/">
	<!ENTITY ns_graphs "http://ns.adobe.com/Graphs/1.0/">
]>
<svg version="1.1" id="Layer_1" xmlns:x="&ns_extend;" xmlns:i="&ns_ai;" xmlns:graph="&ns_graphs;"
	 xmlns="http://www.w3.org/2000/svg" xmlns:xlink="http://www.w3.org/1999/xlink" xmlns:a="http://ns.adobe.com/AdobeSVGViewerExtensions/3.0/"
	 x="0px" y="0px" width="202px" height="202px" viewBox="0 0 202 202" enable-background="new 0 0 202 202" xml:space="preserve">
<g>
	<g>
		<g>
			<path fill="#979797" d="M73.089,145.42c-39.75,0-72.088-32.337-72.088-72.082c0-39.75,32.338-72.088,72.088-72.088
				c39.75,0,72.088,32.338,72.088,72.088C145.177,113.083,112.839,145.42,73.089,145.42z M73.089,29.403
				c-24.225,0-43.935,19.711-43.935,43.935c0,24.222,19.71,43.929,43.935,43.929s43.935-19.707,43.935-43.929
				C117.024,49.114,97.314,29.403,73.089,29.403z"/>
		</g>
		<g>
			<path fill="#979797" d="M184.108,201.25c-4.321,0-8.645-1.65-11.942-4.95l-36.71-36.708c-6.599-6.594-6.599-17.294,0-23.887
				c6.599-6.599,17.288-6.599,23.887,0l36.708,36.71c6.6,6.593,6.6,17.293,0,23.885C192.753,199.6,188.43,201.25,184.108,201.25z"/>
		</g>
	</g>
</g>
<g>
</g>
<g>
</g>
<g>
</g>
<g>
</g>
<g>
</g>
<g>
</g>
</svg>
